<?xml version="1.0" encoding="UTF-8"?>
<svg id="Layer_1" data-name="Layer 1" xmlns="http://www.w3.org/2000/svg" width="263.129883" height="209.964945" viewBox="0 0 263.129883 209.964945">
  <g>
    <path d="M9.69043,165.800883v-9.746094c0-3.875977,0-8.195312.110352-11.517578.055664-1.384766.498047-1.882812,1.661133-1.993164,1.107422-.111328,4.041992-.22168,6.811523-.22168,2.768555,0,5.647461.110352,6.754883.22168,1.163086.110352,1.716797.608398,1.772461,1.993164.166016,4.651367.22168,14.397461.22168,20.15625,0,13.400391-2.990234,16.667969-16.335938,16.667969-9.358398,0-10.520508-.554688-10.631836-2.713867-.054688-.885742-.054688-3.266602-.054688-4.374023,0-1.108398,0-3.267578.054688-4.375.055664-1.21875.332031-1.550781,1.384766-1.550781h5.31543c2.768555,0,2.935547-.22168,2.935547-2.546875Z" fill="#404040"/>
    <path d="M63.34668,142.488383c4.041992.443359,5.371094,1.051758,6.201172,4.817383.609375,2.658203,1.163086,7.918945,1.163086,14.397461s-.553711,11.739258-1.163086,14.397461c-.830078,3.765625-2.15918,4.374023-6.201172,4.817383-2.935547.332031-8.694336.553711-12.072266.553711s-9.136719-.22168-12.071289-.553711c-4.041992-.443359-5.371094-1.051758-6.202148-4.817383-.608398-2.658203-1.162109-7.918945-1.162109-14.397461s.553711-11.739258,1.162109-14.397461c.831055-3.765625,2.160156-4.374023,6.202148-4.817383,2.93457-.332031,8.693359-.553711,12.071289-.553711s9.136719.22168,12.072266.553711ZM49.890625,152.123149c-.553711.111328-.831055.277344-.886719.886719-.166016,2.214844-.166016,5.592773-.166016,8.693359s0,6.478516.166016,8.693359c.055664.665039.333008.775391.886719.886719.332031.054688.941406.110352,1.383789.110352.443359,0,1.052734-.055664,1.384766-.110352.553711-.111328.830078-.277344.885742-.886719.166016-2.214844.166016-5.592773.166016-8.693359s0-6.478516-.166016-8.693359c-.055664-.665039-.332031-.775391-.885742-.886719-.332031-.054688-.941406-.110352-1.384766-.110352-.442383,0-1.107422.055664-1.383789.110352Z" fill="#404040"/>
    <path d="M91.585938,142.544047c1.162109.110352,1.71582.608398,1.771484,1.993164.166016,4.485352.166016,10.6875.166016,17.166016,0,6.589844,0,12.680664-.166016,17.166016-.055664,1.383789-.609375,1.882812-1.771484,1.993164-1.108398.111328-4.15332.22168-6.921875.22168-2.769531,0-5.814453-.110352-6.921875-.22168-1.163086-.110352-1.716797-.609375-1.772461-1.993164-.166016-4.485352-.166016-10.576172-.166016-17.166016,0-6.478516,0-12.680664.166016-17.166016.055664-1.384766.609375-1.882812,1.772461-1.993164,1.107422-.111328,4.152344-.22168,6.921875-.22168,2.768555,0,5.813477.110352,6.921875.22168Z" fill="#404040"/>
    <path d="M124.367188,142.544047c.996094-.111328,3.875977-.22168,5.813477-.22168,2.381836,0,5.039062.110352,5.980469.22168.99707.110352,1.44043.608398,1.495117,1.993164.166016,4.485352.166016,10.631836.166016,17.22168,0,6.478516,0,12.680664-.166016,17.166016-.054688,1.383789-.442383,1.881836-1.439453,1.993164-.99707.110352-3.709961.22168-6.036133.22168-1.993164,0-3.37793-.055664-4.319336-.166016-2.712891-.277344-3.266602-.609375-4.540039-2.713867l-7.365234-11.960938v12.570312c0,1.383789-.387695,1.882812-1.439453,1.993164-.99707.111328-3.875977.22168-5.814453.22168-2.380859,0-5.039062-.110352-5.980469-.22168-.996094-.110352-1.439453-.609375-1.495117-1.993164-.166016-4.485352-.166016-10.576172-.166016-17.166016,0-6.478516,0-12.680664.166016-17.166016.055664-1.384766.609375-1.882812,1.772461-1.993164,1.107422-.111328,4.097656-.22168,5.869141-.22168,1.44043,0,3.211914.055664,3.876953.110352,2.712891.277344,3.266602.665039,4.540039,2.768555l7.641602,12.404297v-13.068359c0-1.384766.387695-1.882812,1.44043-1.993164Z" fill="#404040"/>
    <path d="M177.967773,171.837016c.054688,1.107422.054688,2.214844.054688,3.432617,0,1.21875,0,2.492188-.054688,3.599609-.055664,1.383789-.775391,1.882812-1.938477,1.993164-1.661133.166016-12.348633.22168-15.283203.22168-3.045898,0-12.84668,0-15.449219-.22168-1.163086-.110352-1.716797-.609375-1.772461-1.993164-.166016-4.485352-.166016-10.6875-.166016-17.166016s0-12.680664.166016-17.166016c.055664-1.384766.609375-1.882812,1.772461-1.993164,2.602539-.22168,12.40332-.22168,15.449219-.22168,2.93457,0,13.62207.054688,15.283203.22168,1.163086.110352,1.882812.608398,1.938477,1.993164.054688,1.107422.054688,2.380859.054688,3.599609,0,1.217773,0,2.325195-.054688,3.432617-.055664,1.163086-.387695,1.550781-1.384766,1.550781h-16.114258c-.498047,0-.664062.22168-.664062.99707v2.103516c0,.775391.166016.886719.664062.886719h15.006836c.941406,0,1.329102.166016,1.384766,1.107422.054688,1.107422.054688,2.380859.054688,3.488281s0,2.380859-.054688,3.488281c-.055664.941406-.443359,1.107422-1.384766,1.107422h-15.006836c-.498047,0-.664062.22168-.664062.99707v2.104492c0,.774414.166016.885742.664062.885742h16.114258c.99707,0,1.329102.387695,1.384766,1.550781Z" fill="#404040"/>
    <path d="M222.264648,179.588969c0,.332031-.055664.609375-.277344.831055-.276367.276367-.719727.442383-1.550781.498047-1.549805.110352-4.041992.166016-6.201172.166016-2.160156,0-4.541016,0-6.257812-.166016-2.103516-.22168-2.712891-.719727-3.432617-2.713867l-3.211914-9.025391h-1.938477v9.634766c0,1.384766-.553711,1.882812-1.716797,1.993164-1.107422.111328-3.654297.22168-6.478516.22168-2.712891,0-5.149414-.110352-6.256836-.22168-1.163086-.110352-1.716797-.608398-1.772461-1.993164-.166016-4.485352-.166016-10.576172-.166016-17.166016,0-6.478516,0-12.625.166016-17.110352.055664-1.384766.609375-1.882812,1.772461-1.993164,2.546875-.22168,10.686523-.277344,16.888672-.277344,4.263672,0,9.082031.111328,12.238281.387695,6.53418.553711,7.696289,2.824219,7.696289,12.292969,0,8.472656-1.051758,10.355469-5.31543,11.296875l5.205078,11.129883c.553711,1.217773.609375,1.771484.609375,2.214844ZM204.987305,158.214945c.166016-.665039.22168-1.550781.22168-2.547852,0-.996094-.055664-1.882812-.22168-2.546875-.166016-.885742-.332031-1.107422-1.162109-1.107422h-3.931641c-.387695,0-.553711.332031-.553711,1.107422v5.094727c0,.830078.166016,1.107422.553711,1.107422h3.931641c.830078,0,.996094-.22168,1.162109-1.107422Z" fill="#404040"/>
    <path d="M248.233398,142.488383c1.108398-.110352,3.543945-.166016,6.313477-.166016,2.768555,0,5.758789.110352,6.866211.22168,1.329102.110352,1.716797.608398,1.716797,1.383789s-.387695,1.716797-1.44043,3.987305l-9.856445,20.709961c0,3.322266-.055664,7.142578-.166016,10.244141-.055664,1.383789-.609375,1.882812-1.771484,1.993164-1.052734.111328-4.15332.22168-6.811523.22168s-5.758789-.110352-6.810547-.22168c-1.163086-.110352-1.716797-.609375-1.772461-1.993164-.110352-3.101562-.166016-6.921875-.166016-10.244141l-9.856445-20.709961c-1.052734-2.270508-1.439453-3.211914-1.439453-3.987305s.386719-1.273438,1.71582-1.383789c1.107422-.111328,4.097656-.22168,6.866211-.22168,2.769531,0,5.206055.055664,6.313477.166016,1.9375.22168,2.103516.332031,2.546875,2.658203l2.492188,12.791016h.220703l2.492188-12.791016c.443359-2.326172.609375-2.436523,2.546875-2.658203Z" fill="#404040"/>
  </g>
  <g>
    <path d="M155.60202,58.578527l5.915898-5.915898,15.310152-15.310152c3.262187-3.262187,3.262187-8.569609,0-11.831796l-7.857052-7.857052c-3.262187-3.262187-8.569609-3.262187-11.831796,0l-15.310152,15.310152-5.915898,5.915898,19.688848,19.688848Z" fill="#404040"/>
    <rect x="119.009814" y="2.297472" width="27.844236" height="27.844236" rx="8.366343" ry="8.366343" transform="translate(27.465879 98.747678) rotate(-45)" fill="#404040"/>
    <rect x="164.34999" y="47.637649" width="27.844236" height="27.844236" rx="8.366343" ry="8.366343" transform="translate(8.685363 144.087855) rotate(-45)" fill="#404040"/>
    <path d="M149.28217,97.598854l7.857052,7.857052c3.262187,3.262187,8.569609,3.262187,11.831796,0l7.857052-7.857052c3.262187-3.262187,3.262187-8.569609,0-11.831796l-7.857052-7.857052-5.915898-5.915898-40.557528-40.557528-5.915898-5.915898-7.857052-7.857052c-3.262187-3.262187-8.569609-3.262187-11.831796,0l-7.857052,7.857052c-3.262187,3.262187-3.262187,8.569609,0,11.831796l7.857052,7.857052,5.915898,5.915898,40.557528,40.557528,5.915898,5.915898Z" fill="#404040"/>
    <rect x="73.669637" y="47.637649" width="27.844236" height="27.844236" rx="8.366343" ry="8.366343" transform="translate(-17.874298 79.967162) rotate(-45)" fill="#404040"/>
    <path d="M110.261843,64.541007l-5.915898,5.915898-15.310152,15.310152c-3.262187,3.262187-3.262187,8.569609,0,11.831796l7.857052,7.857052c3.262187,3.262187,8.569609,3.262187,11.831796,0l15.310152-15.310152,5.915898-5.915898-19.688848-19.688848Z" fill="#404040"/>
    <rect x="119.009814" y="92.977826" width="27.844236" height="27.844236" rx="8.366343" ry="8.366343" transform="translate(-36.654814 125.307339) rotate(-45)" fill="#404040"/>
  </g>
  <g>
    <path d="M32.506836,209.281352c-1.041992-.456055-1.860352-1.102539-2.455078-1.939453-.595703-.836914-.892578-1.8125-.892578-2.928711h3.40332c.074219.836914.404297,1.525391.990234,2.064453s1.40918.808594,2.46875.808594c1.097656,0,1.953125-.264648,2.566406-.794922.614258-.530273.920898-1.212891.920898-2.049805,0-.651367-.19043-1.181641-.572266-1.59082-.380859-.408203-.855469-.724609-1.421875-.948242-.568359-.223633-1.353516-.464844-2.357422-.725586-1.265625-.334961-2.292969-.673828-3.083008-1.017578-.791016-.344727-1.464844-.878906-2.022461-1.604492s-.836914-1.692383-.836914-2.901367c0-1.116211.279297-2.091797.836914-2.928711s1.338867-1.478516,2.34375-1.924805c1.003906-.447266,2.166016-.669922,3.486328-.669922,1.878906,0,3.417969.469727,4.617188,1.40918,1.199219.938477,1.864258,2.226562,1.995117,3.863281h-3.515625c-.055664-.707031-.390625-1.311523-1.003906-1.813477-.614258-.501953-1.422852-.75293-2.426758-.75293-.912109,0-1.65625.232422-2.232422.697266s-.864258,1.134766-.864258,2.008789c0,.595703.180664,1.083008.543945,1.464844.362305.380859.822266.682617,1.380859.90625.557617.223633,1.320312.464844,2.287109.725586,1.283203.353516,2.330078.707031,3.138672,1.05957.808594.353516,1.49707.897461,2.064453,1.631836.567383.735352.850586,1.71582.850586,2.943359,0,.986328-.264648,1.916016-.794922,2.790039s-1.301758,1.576172-2.31543,2.106445c-1.013672.529297-2.208984.794922-3.584961.794922-1.301758,0-2.473633-.227539-3.514648-.683594Z" fill="#404040"/>
    <path d="M60.849609,190.380961l-6.416016,12.358398v7.030273h-3.180664v-7.030273l-6.444336-12.358398h3.542969l4.492188,9.512695,4.491211-9.512695h3.514648Z" fill="#404040"/>
    <path d="M66.233398,209.281352c-1.041992-.456055-1.860352-1.102539-2.455078-1.939453-.595703-.836914-.892578-1.8125-.892578-2.928711h3.40332c.074219.836914.404297,1.525391.990234,2.064453s1.40918.808594,2.46875.808594c1.097656,0,1.953125-.264648,2.566406-.794922.614258-.530273.920898-1.212891.920898-2.049805,0-.651367-.19043-1.181641-.572266-1.59082-.380859-.408203-.855469-.724609-1.421875-.948242-.568359-.223633-1.353516-.464844-2.357422-.725586-1.265625-.334961-2.292969-.673828-3.083008-1.017578-.791016-.344727-1.464844-.878906-2.022461-1.604492s-.836914-1.692383-.836914-2.901367c0-1.116211.279297-2.091797.836914-2.928711s1.338867-1.478516,2.34375-1.924805c1.003906-.447266,2.166016-.669922,3.486328-.669922,1.878906,0,3.417969.469727,4.617188,1.40918,1.199219.938477,1.864258,2.226562,1.995117,3.863281h-3.515625c-.055664-.707031-.390625-1.311523-1.003906-1.813477-.614258-.501953-1.422852-.75293-2.426758-.75293-.912109,0-1.65625.232422-2.232422.697266s-.864258,1.134766-.864258,2.008789c0,.595703.180664,1.083008.543945,1.464844.362305.380859.822266.682617,1.380859.90625.557617.223633,1.320312.464844,2.287109.725586,1.283203.353516,2.330078.707031,3.138672,1.05957.808594.353516,1.49707.897461,2.064453,1.631836.567383.735352.850586,1.71582.850586,2.943359,0,.986328-.264648,1.916016-.794922,2.790039s-1.301758,1.576172-2.31543,2.106445c-1.013672.529297-2.208984.794922-3.584961.794922-1.301758,0-2.473633-.227539-3.514648-.683594Z" fill="#404040"/>
    <path d="M92.735352,190.380961v2.594727h-5.161133v16.793945h-3.180664v-16.793945h-5.188477v-2.594727h13.530273Z" fill="#404040"/>
    <path d="M99.124023,192.947367v5.691406h6.695312v2.59375h-6.695312v5.942383h7.532227v2.594727h-10.712891v-19.416992h10.712891v2.594727h-7.532227Z" fill="#404040"/>
    <path d="M130.981445,190.380961v19.388672h-3.179688v-13.279297l-5.915039,13.279297h-2.203125l-5.942383-13.279297v13.279297h-3.180664v-19.388672h3.431641l6.806641,15.204102,6.779297-15.204102h3.40332Z" fill="#404040"/>
    <path d="M160.412109,190.380961l-5.74707,19.388672h-3.598633l-4.072266-14.673828-4.324219,14.673828-3.571289.027344-5.495117-19.416016h3.375l4.017578,15.790039,4.351562-15.790039h3.571289l4.044922,15.706055,4.044922-15.706055h3.40332Z" fill="#404040"/>
    <path d="M166.898438,208.695414c-1.515625-.845703-2.71582-2.027344-3.598633-3.542969-.883789-1.515625-1.325195-3.22168-1.325195-5.119141,0-1.896484.441406-3.598633,1.325195-5.105469.882812-1.505859,2.083008-2.681641,3.598633-3.52832s3.175781-1.269531,4.979492-1.269531c1.822266,0,3.491211.422852,5.007812,1.269531,1.515625.84668,2.709961,2.022461,3.584961,3.52832.873047,1.506836,1.310547,3.208984,1.310547,5.105469,0,1.897461-.4375,3.603516-1.310547,5.119141-.875,1.515625-2.069336,2.697266-3.584961,3.542969-1.516602.84668-3.185547,1.269531-5.007812,1.269531-1.803711,0-3.463867-.422852-4.979492-1.269531ZM175.30957,206.32432c1.003906-.585938,1.789062-1.422852,2.357422-2.510742.566406-1.087891.850586-2.347656.850586-3.780273,0-1.431641-.28418-2.6875-.850586-3.765625-.568359-1.079102-1.353516-1.90625-2.357422-2.483398-1.004883-.576172-2.148438-.864258-3.431641-.864258s-2.426758.288086-3.431641.864258c-1.003906.577148-1.790039,1.404297-2.356445,2.483398-.568359,1.078125-.851562,2.333984-.851562,3.765625,0,1.432617.283203,2.692383.851562,3.780273.566406,1.087891,1.352539,1.924805,2.356445,2.510742,1.004883.585938,2.148438.878906,3.431641.878906s2.426758-.292969,3.431641-.878906Z" fill="#404040"/>
    <path d="M194.976562,209.769633l-4.463867-7.755859h-2.426758v7.755859h-3.180664v-19.388672h6.695312c1.488281,0,2.748047.260742,3.780273.78125s1.803711,1.217773,2.31543,2.091797c.511719.875.767578,1.851562.767578,2.929688,0,1.264648-.367188,2.413086-1.102539,3.445312-.734375,1.032227-1.864258,1.734375-3.388672,2.106445l4.797852,8.03418h-3.793945ZM188.085938,199.475688h3.514648c1.19043,0,2.087891-.297852,2.692383-.892578.604492-.595703.907227-1.395508.907227-2.399414,0-1.004883-.297852-1.790039-.893555-2.357422-.594727-.567383-1.49707-.850586-2.706055-.850586h-3.514648v6.5Z" fill="#404040"/>
    <path d="M213.220703,209.769633l-7.503906-8.675781v8.675781h-3.180664v-19.388672h3.180664v8.84375l7.532227-8.84375h3.989258l-8.424805,9.708008,8.564453,9.680664h-4.157227Z" fill="#404040"/>
    <path d="M223.068359,209.281352c-1.041992-.456055-1.860352-1.102539-2.455078-1.939453-.595703-.836914-.892578-1.8125-.892578-2.928711h3.40332c.074219.836914.404297,1.525391.990234,2.064453s1.40918.808594,2.46875.808594c1.097656,0,1.953125-.264648,2.566406-.794922.614258-.530273.920898-1.212891.920898-2.049805,0-.651367-.19043-1.181641-.572266-1.59082-.380859-.408203-.855469-.724609-1.421875-.948242-.568359-.223633-1.353516-.464844-2.357422-.725586-1.265625-.334961-2.292969-.673828-3.083008-1.017578-.791016-.344727-1.464844-.878906-2.022461-1.604492s-.836914-1.692383-.836914-2.901367c0-1.116211.279297-2.091797.836914-2.928711s1.338867-1.478516,2.34375-1.924805c1.003906-.447266,2.166016-.669922,3.486328-.669922,1.878906,0,3.417969.469727,4.617188,1.40918,1.199219.938477,1.864258,2.226562,1.995117,3.863281h-3.515625c-.055664-.707031-.390625-1.311523-1.003906-1.813477-.614258-.501953-1.422852-.75293-2.426758-.75293-.912109,0-1.65625.232422-2.232422.697266s-.864258,1.134766-.864258,2.008789c0,.595703.180664,1.083008.543945,1.464844.362305.380859.822266.682617,1.380859.90625.557617.223633,1.320312.464844,2.287109.725586,1.283203.353516,2.330078.707031,3.138672,1.05957.808594.353516,1.49707.897461,2.064453,1.631836.567383.735352.850586,1.71582.850586,2.943359,0,.986328-.264648,1.916016-.794922,2.790039s-1.301758,1.576172-2.31543,2.106445c-1.013672.529297-2.208984.794922-3.584961.794922-1.301758,0-2.473633-.227539-3.514648-.683594Z" fill="#404040"/>
  </g>
</svg>